<svg xmlns="http://www.w3.org/2000/svg" width="400" height="400" viewBox="0 0 400 400" fill="none">
  <path fill="#191b1f" d="M77.42 0h245.16C365.33 0 400 34.67 400 77.42v245.16c0 42.75-34.67 77.42-77.42 77.42H77.42C34.67 400 0 365.33 0 322.58V77.42C0 34.67 34.67 0 77.42 0"/>
  <path fill="#3b82f6" d="m68.92 240.19-.51 112.31c49.62-.61 99.23-1.23 148.85-1.85 12.75-.15 19.62.13 32.16-3.14 8.38-2.19 23.24-7.78 33.62-14.13 34.17-20.91 48.55-54.51 48.56-93.68 0-33.9-14.79-65.14-41.21-86.42-25.62-20.65-58.98-29.24-91.37-23.26-25.75 4.75-50.38 18.25-68.69 36.9-3.19 3.26-6.3 6.6-9.21 10.12-.77.93-1.94 1.31-3.11 1.01s-2.01-1.2-2.24-2.39c-2.77-14.63-.71-30.16 5.54-43.67 7.29-15.78 19.81-27.94 35.85-34.67 20.88-8.76 44.45-7.12 65.82-1.09 34.24 9.68 67.02 31.16 94.58 53.26 4.02 3.23 8.09 6.41 12.28 9.43.41.3.82.6 1.24.89l.51-112.31-149.11 1.85c-25.6.32-42.29 3.06-65.52 17.27-34.17 20.91-48.55 54.51-48.56 93.68 0 33.9 14.79 65.14 41.21 86.42 25.62 20.65 58.98 29.24 91.37 23.26 25.75-4.75 50.38-18.25 68.69-36.9 3.19-3.26 6.31-6.61 9.21-10.12.77-.94 1.94-1.32 3.11-1.01 1.18.3 2.02 1.19 2.24 2.38 2.77 14.64.71 30.17-5.54 43.67-7.29 15.78-19.81 27.95-35.85 34.68-20.88 8.76-44.45 7.12-65.82 1.08-34.25-9.67-67.02-31.15-94.58-53.25-4.02-3.23-8.09-6.41-12.28-9.43-.41-.3-.82-.6-1.24-.89m202.48-40.9c-15.2 32.68-39.69 50.54-75.18 56.2-28.34 4.53-56.69-.42-79.04-19.27-19.05-16.06-30.45-39.57-33.57-64.1-3.12-24.49 2.01-50.2 16.2-70.62 9.43-13.55 23.51-24.16 35.86-29.81 20.76-9.49 33.56-9.06 50.88-9.12l127.69-.4c1.68 0 3.05 1.36 3.06 3.04l.34 62.76c0 1.23-.67 2.28-1.78 2.79s-2.34.34-3.27-.46c-1.11-.96-2.24-1.89-3.39-2.81-5.03-4.06-10.31-7.83-15.75-11.33-20.94-13.49-43.8-25.27-67.82-32.11-17.36-4.95-35.81-7.37-53.79-4.93-18.76 2.56-36 10.35-49.27 24.03-11.73 12.08-19.21 27.67-21.72 44.3-1.24 8.21-1.24 16.6.01 24.81 1.25 8.2 3.75 16.19 7.49 23.6 8.28 16.44 21.81 28.72 38.48 36.34 15.5 7.09 38.17 8.16 54.67 4.33 19.01-4.41 33.81-15.61 33.81-36.53 0-6.73-1.9-13.28-5.52-18.95a3 3 0 0 1-.01-3.27 2.99 2.99 0 0 1 2.96-1.4c14.92 1.85 28.27 8.17 38.2 19.62.81.93.98 2.17.46 3.29M87.41 269.7c1.11.96 2.24 1.89 3.39 2.81 5.03 4.06 10.31 7.83 15.75 11.33 20.94 13.49 43.8 25.27 67.82 32.11 17.36 4.95 35.81 7.37 53.79 4.93 18.76-2.56 36-10.36 49.26-24.03 11.74-12.08 19.22-27.67 21.73-44.3 1.24-8.21 1.24-16.6-.01-24.81-1.25-8.2-3.75-16.19-7.49-23.6-8.28-16.44-21.81-28.72-38.48-36.34-15.59-7.13-38.22-8.28-54.81-4.4-19.01 4.45-33.67 15.71-33.67 36.6 0 6.73 1.9 13.27 5.51 18.95.66 1.02.66 2.25.01 3.27s-1.76 1.55-2.97 1.39c-15.15-1.95-27.21-8.86-38-19.49a3.02 3.02 0 0 1-.62-3.46c15.21-32.66 39.7-50.49 75.16-56.15 28.34-4.53 56.69.42 79.04 19.27 19.05 16.06 30.45 39.57 33.57 64.1 3.12 24.49-2.01 50.2-16.2 70.62-12.32 17.72-36.13 30.94-49.35 34.82-16.43 4.83-20.72 4.06-34.98 4.1l-130.1.41c-1.68 0-3.05-1.36-3.06-3.04l-.34-62.76c0-1.23.67-2.28 1.78-2.79s2.34-.34 3.27.46"/>
</svg>
