<?xml version="1.0" encoding="UTF-8" standalone="no"?>
<!DOCTYPE svg PUBLIC "-//W3C//DTD SVG 1.1//EN" "http://www.w3.org/Graphics/SVG/1.1/DTD/svg11.dtd">
<svg width="100%" height="100%" viewBox="0 0 542 542" version="1.1" xmlns="http://www.w3.org/2000/svg" xmlns:xlink="http://www.w3.org/1999/xlink" xml:space="preserve" xmlns:serif="http://www.serif.com/" style="fill-rule:evenodd;clip-rule:evenodd;stroke-linejoin:round;stroke-miterlimit:2;">
    <g transform="matrix(1,0,0,1,-2.616158,-3.116158)">
        <g transform="matrix(1,0,0,1,-16.952289,-14.180885)">
            <path d="M561.336,152.739L561.336,423.623C561.336,498.375 500.647,559.065 425.894,559.065L155.01,559.065C80.258,559.065 19.568,498.375 19.568,423.623L19.568,152.739C19.568,77.987 80.258,17.297 155.01,17.297L425.894,17.297C500.647,17.297 561.336,77.987 561.336,152.739Z" style="fill:rgb(25,27,31);"/>
        </g>
        <g transform="matrix(0.999995,0,0,0.999995,-606.399993,-314.668981)">
            <path d="M724.267,441.328C764.782,380.741 825.697,373.06 836.155,371.741C863.849,368.249 956.885,368.106 967.388,368.09C976.038,368.077 1065.539,367.943 1075.492,370.333C1076.946,370.682 1078.311,372.261 1078.394,373.754C1080.404,409.723 1080.044,516.73 1078.158,526.594C1077.952,527.672 1069.33,532.472 1067.899,532.162C1062.824,531.063 945.464,425.155 851.087,438.974C812.518,444.621 791.327,470.663 787.638,475.196C764.692,503.396 773.055,507.006 768.955,542.986C773.706,539.386 777.491,534.647 782.05,530.808C917.226,416.968 1085.721,538.064 1057.653,681.392C1042.816,757.158 975.665,796.148 935.66,804.924C916.38,809.154 809.6,809.247 798.632,809.257C789.415,809.264 692.002,809.343 683.43,807.334C680.063,806.545 680.063,733.081 680.063,726.618L680.063,651.774L683.407,648.433C691.068,640.772 692.412,647.902 734.464,677.264C744.845,684.513 815.311,733.714 880.734,737.73C887.525,738.147 932.839,740.929 962.252,713.482C994.017,683.841 984.239,678.143 990.511,635.265C987.444,637.674 985.161,640.966 982.178,643.478C855.947,749.795 751.872,655.253 732.478,629.18C683.566,563.422 696.064,483.497 724.268,441.331M797.524,408.967C801.194,407.124 824.181,395.58 846.785,394.534C863.23,393.773 946.123,393.865 954.761,393.875L1054.026,393.984L1054.538,489.812L1043.472,481.594C911.915,383.886 798.041,400.813 757.34,474.661C717.24,547.419 770.843,653.7 871.96,647.487C877.205,647.165 911.378,645.065 926.759,611.265C937.955,586.665 922.107,555.034 921.985,558.432L924.616,559.053C941.584,563.048 983.934,597.39 978.248,607.79C948.995,661.289 824.026,704.443 752.974,614.867C701.558,550.048 720.131,447.834 797.525,408.967M825.098,529.939C831.652,525.721 868.527,501.989 920.856,511.97C953.741,518.265 983.438,535.799 1004.833,561.554C1077.576,649.298 1009.136,758.272 943.553,776.763C917.882,784.001 819.854,784.296 809.079,784.328L705.657,784.642C705.657,784.642 705.434,696.205 705.442,688.337C717.948,695.724 854.886,808.13 965.598,742.389C1025.89,706.589 1039.237,596.26 957.496,547.284C877.818,499.545 806.904,561.867 834.865,613.298L838.152,619.343L834.539,618.357C812.453,612.354 776.563,576.226 779.852,572.135C782.953,568.277 801.632,545.04 825.098,529.938" style="fill:rgb(59,130,246);"/>
        </g>
    </g>
</svg>
